<svg id="Home_Page_Mobile" data-name="Home Page Mobile" xmlns="http://www.w3.org/2000/svg" viewBox="0 0 170.15 168.86"><defs><style>.cls-1{fill:#ffeac0;}.cls-2{fill:#ab5b5e;}</style></defs><rect class="cls-1" x="64.77" y="88.42" width="5.41" height="72.71"/><polygon class="cls-1" points="80.33 7.97 74.91 7.97 74.91 76.18 74.91 81.59 80.33 81.59 110.81 81.59 110.81 76.18 80.33 76.18 80.33 7.97"/><path class="cls-1" d="M1216.12,121.76h-3.31v72.71h5.41V171c9.44-.33,17.44-2.87,23.22-7.39s8.92-10.62,8.92-17.21C1250.37,134.54,1239.65,121.76,1216.12,121.76Zm22,37.6c-4.84,3.79-11.69,5.93-19.89,6.24V127.21c18.35.68,26.74,10.27,26.74,19.2C1245,151.31,1242.53,155.91,1238.11,159.36Z" transform="translate(-1138.2 -33.35)"/><rect class="cls-1" x="65.08" y="7.97" width="5.41" height="73.62"/><path class="cls-2" d="M1306.65,89.77h1.69V33.35h-80.66v3.39h66V79.16h3.39V36.73h7.9v49.7a22.57,22.57,0,0,0-17,8.94,31.76,31.76,0,0,0-6.14,19.37,31.76,31.76,0,0,0,6.14,19.37,22.56,22.56,0,0,0,17,8.94v55.76h-7.9V151.51h-3.39v47.31h-66v3.39h80.66V139.73h-1.69c-14.74,0-21.45-12.95-21.45-25a28.36,28.36,0,0,1,5.43-17.3A19.48,19.48,0,0,1,1306.65,89.77Z" transform="translate(-1138.2 -33.35)"/><path class="cls-2" d="M1205,198.82h-50.5V150.71h-3.39v48.11h-9.57V143.07a24.65,24.65,0,0,0,18.24-8.9,31.87,31.87,0,0,0,0-38.83,24.65,24.65,0,0,0-18.24-8.9V36.73h9V79.16H1154V36.73h64.69V33.35h-80.5V89.77h1.69c15.9,0,23.14,12.95,23.14,25a27,27,0,0,1-5.82,17.26c-4.18,5.05-10.17,7.72-17.32,7.72h-1.69V202.2h80.5v-3.39H1205Z" transform="translate(-1138.2 -33.35)"/></svg>
