<!-- Generator: Adobe Illustrator 22.1.0, SVG Export Plug-In  -->
<svg version="1.1"
	 xmlns="http://www.w3.org/2000/svg" xmlns:xlink="http://www.w3.org/1999/xlink" xmlns:a="http://ns.adobe.com/AdobeSVGViewerExtensions/3.0/"
	 x="0px" y="0px" width="245px" height="81.2px" viewBox="0 0 245 81.2" style="enable-background:new 0 0 245 81.2;"
	 xml:space="preserve">
<style type="text/css">
	.st0{fill:#FFF6E7;}
	.st1{fill:#75292E;}
	.st2{fill:#AC5C5F;}
	.st3{fill:#AA3636;}
</style>
<defs>
</defs>
<path class="st0" d="M159.5,78.6v2.6H86.4v-2.6c0-21.9,19-31.9,36.6-31.9C140.6,46.7,159.5,56.6,159.5,78.6z"/>
<path class="st1" d="M242,0v78h-83.4l2.8-0.4c0-20.7-21.3-32.9-38.4-32.9c-17.1,0-37.8,12.6-37.8,33.3h2.5H3V0H242z"/>
<g>
	<rect x="160.4" y="75.1" class="st2" width="84.6" height="4.9"/>
</g>
<g>
	<path class="st2" d="M163.6,77.5V80h-5v-2.4c0-20.7-18.4-30.1-35.5-30.1c-17.1,0-35.5,9.4-35.5,30.1V80H0v-4.9h82.8
		c1.4-22.3,21.5-32.6,40.4-32.6c18.8,0,39,10.2,40.3,32.6C163.5,75.9,163.6,76.7,163.6,77.5z"/>
</g>
<g>
	<rect x="175.4" y="60" class="st2" width="69.6" height="4.9"/>
</g>
<g>
	<rect x="0" y="60" class="st2" width="72.6" height="4.9"/>
</g>
<polygon class="st3" points="123.3,59.8 138.8,80 107.8,80 "/>
</svg>
