<svg id="Assets" xmlns="http://www.w3.org/2000/svg" viewBox="0 0 245 81.17"><defs><style>.cls-1{fill:#ffeac0;}.cls-2{fill:#75292e;}.cls-3{fill:#ac5c5f;}</style></defs><path class="cls-1" d="M957,218.58v2.6H883.88v-2.6c0-21.93,19-31.92,36.58-31.92S957,196.64,957,218.58Z" transform="translate(-797.5 -140)"/><path class="cls-2" d="M1039.53,140v78H956.1l2.75-.44c0-20.69-21.32-32.88-38.41-32.88S882.61,197.3,882.61,218H800.47V140Z" transform="translate(-797.5 -140)"/><rect class="cls-3" x="160.42" y="75.1" width="84.58" height="4.9"/><path class="cls-3" d="M961.06,217.55V220h-5v-2.45c0-20.69-18.39-30.11-35.47-30.11s-35.48,9.42-35.48,30.11V220H797.5v-4.9h82.77c1.38-22.35,21.55-32.56,40.36-32.56s39,10.21,40.35,32.56C961,215.9,961.06,216.71,961.06,217.55Z" transform="translate(-797.5 -140)"/><rect class="cls-3" x="175.36" y="60" width="69.63" height="4.9"/><rect class="cls-3" y="60" width="72.56" height="4.9"/></svg>
